<svg xmlns="http://www.w3.org/2000/svg" viewBox="0 0 48 60" x="0px" y="0px"><title>bathtub, hotel, bathroom</title><path d="M45,26H40V10.5a4.49,4.49,0,0,0-9-.37A4,4,0,0,0,28,14v1a1,1,0,0,0,1,1h6a1,1,0,0,0,1-1V14a4,4,0,0,0-2.93-3.84A2.47,2.47,0,0,1,35.5,8,2.5,2.5,0,0,1,38,10.5V26H3a1,1,0,0,0,0,2H4v7a5,5,0,0,0,5,5h1v1a1,1,0,0,0,2,0V40H36v1a1,1,0,0,0,2,0V40h1a5,5,0,0,0,5-5V28h1a1,1,0,0,0,0-2Z"/><text x="0" y="63" fill="#000000" font-size="5px" font-weight="bold" font-family="'Helvetica Neue', Helvetica, Arial-Unicode, Arial, Sans-serif">Created by Deemak Daksina</text><text x="0" y="68" fill="#000000" font-size="5px" font-weight="bold" font-family="'Helvetica Neue', Helvetica, Arial-Unicode, Arial, Sans-serif">from the Noun Project</text></svg>